<?xml version="1.0" encoding="utf-8"?>
<!-- Uploaded to SVGRepo https://www.svgrepo.com -->
<svg version="1.1" id="Layer_1" xmlns="http://www.w3.org/2000/svg" xmlns:xlink="http://www.w3.org/1999/xlink" x="0px" y="0px"
	 viewBox="0 0 256 256" style="enable-background:new 0 0 256 256;" xml:space="preserve">
<g>
	<circle cx="128" cy="128" r="33.6"/>
	<path d="M128.2,56.8c-39.3,0-71.2,32-71.2,71.2s32,71.2,71.2,71.2c16.4,0,31.6-5.6,43.6-15c2.5,1.9,5.5,3,8.9,3
		c8.2,0,14.8-6.6,14.8-14.8c0-4.2-1.8-8-4.6-10.7c5.4-10,8.5-21.5,8.5-33.7C199.4,88.7,167.5,56.8,128.2,56.8z M180.7,157.6
		c-8.2,0-14.8,6.6-14.8,14.8c0,3.4,1.2,6.5,3.1,9c-11.3,8.7-25.5,13.8-40.8,13.8c-37.1,0-67.2-30.2-67.2-67.2s30.2-67.2,67.2-67.2
		c37.1,0,67.2,30.2,67.2,67.2c0,11.3-2.8,22-7.8,31.4C185.6,158.3,183.2,157.6,180.7,157.6z"/>
	<path d="M16.4,114.5c0.3,0,0.5,0.1,0.8,0.1c2.4,0,4.5-1.7,4.9-4.2c0.5-2.7-1.4-5.3-4.1-5.7c-2.7-0.5-5.3,1.4-5.7,4.1
		C11.8,111.5,13.6,114.1,16.4,114.5z"/>
	<path d="M26.8,79c0.8,0.4,1.6,0.6,2.4,0.6c1.8,0,3.5-1,4.4-2.6c1.3-2.4,0.4-5.5-2-6.8c-2.4-1.3-5.5-0.4-6.8,2
		C23.4,74.6,24.3,77.6,26.8,79z"/>
	<path d="M48.3,207.4c-1.9,2-1.7,5.2,0.3,7.1c1,0.9,2.2,1.3,3.4,1.3c1.4,0,2.7-0.5,3.7-1.6c1.9-2,1.7-5.2-0.3-7.1
		C53.4,205.3,50.2,205.4,48.3,207.4z"/>
	<path d="M16.4,141.7c-2.7,0.5-4.6,3-4.1,5.8c0.4,2.4,2.5,4.2,4.9,4.2c0.3,0,0.6,0,0.8-0.1c2.7-0.5,4.6-3,4.1-5.8
		C21.7,143.1,19.1,141.2,16.4,141.7z"/>
	<path d="M26.9,177.2c-2.4,1.3-3.3,4.4-2,6.8c0.9,1.7,2.6,2.6,4.4,2.6c0.8,0,1.6-0.2,2.4-0.6c2.4-1.3,3.3-4.3,2-6.8
		C32.3,176.8,29.3,175.9,26.9,177.2z"/>
	<path d="M186.8,37.9c0.8,0.6,1.8,0.8,2.7,0.8c1.6,0,3.2-0.8,4.2-2.3c1.5-2.3,0.9-5.4-1.5-6.9c-2.3-1.5-5.4-0.9-6.9,1.5
		C183.8,33.3,184.5,36.4,186.8,37.9z"/>
	<path d="M154.4,23.7c0.4,0.1,0.8,0.2,1.2,0.2c2.2,0,4.3-1.5,4.8-3.8c0.7-2.7-1-5.4-3.6-6.1c-2.7-0.7-5.4,1-6.1,3.6
		C150.1,20.3,151.7,23,154.4,23.7z"/>
	<path d="M118.7,20.9c0.1,0,0.3,0,0.4,0c2.8-0.2,4.8-2.6,4.6-5.4c-0.2-2.8-2.6-4.8-5.4-4.6c-2.8,0.2-4.8,2.6-4.6,5.4
		C113.9,18.9,116.1,20.9,118.7,20.9z"/>
	<path d="M82.8,30c0.7,0,1.4-0.1,2-0.4c2.5-1.1,3.7-4.1,2.6-6.6c-1.1-2.5-4.1-3.7-6.6-2.6c-2.5,1.1-3.7,4.1-2.5,6.6
		C79.1,28.9,80.9,30,82.8,30z"/>
	<path d="M240.6,122.8c-2.8,0-5,2.2-5,5c0,0,0,0.1,0,0.1c0,0,0,0.1,0,0.1c0,2.8,2.2,5,5,5c2.8,0,5-2.2,5-5c0,0,0-0.1,0-0.1
		s0-0.1,0-0.1C245.6,125,243.4,122.8,240.6,122.8z"/>
	<path d="M234.5,96.2c0.5,0,1.1-0.1,1.6-0.3c2.6-0.9,4-3.8,3.1-6.4c-0.9-2.6-3.8-4-6.4-3.1c-2.6,0.9-4,3.7-3.1,6.4
		C230.5,94.9,232.5,96.2,234.5,96.2z"/>
	<path d="M187,218c-2.3,1.5-2.9,4.6-1.4,6.9c1,1.5,2.6,2.3,4.2,2.3c0.9,0,1.9-0.3,2.7-0.8c2.3-1.5,3-4.6,1.5-6.9
		C192.4,217.1,189.3,216.5,187,218z"/>
	<path d="M216.8,63.7c1.1,0,2.2-0.3,3.1-1.1c2.2-1.7,2.6-4.8,0.9-7c-1.7-2.2-4.8-2.6-7-0.9c-2.2,1.7-2.5,4.8-0.8,7
		C213.9,63.1,215.3,63.7,216.8,63.7z"/>
	<path d="M236.2,159.8c-2.6-0.9-5.5,0.5-6.3,3.1c-0.9,2.6,0.5,5.5,3.1,6.4c0.5,0.2,1.1,0.3,1.6,0.3c2.1,0,4-1.3,4.7-3.4
		C240.2,163.5,238.8,160.7,236.2,159.8z"/>
	<path d="M220,193.1c-2.2-1.7-5.3-1.3-7,0.9s-1.3,5.3,0.9,7c0.9,0.7,2,1.1,3.1,1.1c1.5,0,3-0.7,3.9-1.9
		C222.6,198,222.2,194.8,220,193.1z"/>
	<path d="M154.6,232.2c-2.7,0.7-4.3,3.4-3.6,6.1c0.6,2.3,2.6,3.8,4.8,3.8c0.4,0,0.8,0,1.2-0.1c2.7-0.7,4.3-3.4,3.6-6.1
		C160,233.2,157.3,231.5,154.6,232.2z"/>
	<path d="M85,226.5c-2.5-1.1-5.5,0-6.6,2.6c-1.1,2.5,0,5.5,2.6,6.6c0.6,0.3,1.3,0.4,2,0.4c1.9,0,3.8-1.1,4.6-3
		C88.7,230.5,87.6,227.6,85,226.5z"/>
	<path d="M119.3,235.1c-2.8-0.2-5.2,1.8-5.4,4.6c-0.2,2.8,1.8,5.2,4.6,5.4c0.1,0,0.3,0,0.4,0c2.6,0,4.8-2,5-4.6
		C124.1,237.8,122.1,235.4,119.3,235.1z"/>
	<circle cx="52" cy="44.8" r="22.4"/>
</g>
</svg>
