<svg version="1.1" xmlns="http://www.w3.org/2000/svg" viewBox="0 0 691.4078979492188 286.5464172363281" width="691.4078979492188" height="286.5464172363281">
  <!-- svg-source:excalidraw -->
  
  <defs>
    <style>
      @font-face {
        font-family: "Virgil";
        src: url("https://plus.excalidraw.com/Virgil.woff2");
      }
      @font-face {
        font-family: "Cascadia";
        src: url("https://plus.excalidraw.com/Cascadia.woff2");
      }
    </style>
  </defs>
  <g transform="translate(160.6943359375 10) rotate(0 65.5 17.5)"><text x="0" y="25" font-family="Virgil, Segoe UI Emoji" font-size="28px" fill="#fff" text-anchor="start" style="white-space: pre;" direction="ltr">MikroORM</text></g><g transform="translate(160.24786376953125 194.94195556640625) rotate(0 65.5 17.5)"><text x="0" y="25" font-family="Virgil, Segoe UI Emoji" font-size="28px" fill="#fff" text-anchor="start" style="white-space: pre;" direction="ltr">MikroORM</text></g><g transform="translate(410.7421875 10.40924072265625) rotate(0 59 17.5)"><text x="0" y="25" font-family="Virgil, Segoe UI Emoji" font-size="28px" fill="#fff" text-anchor="start" style="white-space: pre;" direction="ltr">GraphQL</text></g><g stroke-opacity="0.3" fill-opacity="0.3" transform="translate(431.3262939453125 195.66259765625) rotate(0 45.5 17.5)"><text x="0" y="25" font-family="Virgil, Segoe UI Emoji" font-size="28px" fill="#fff" text-anchor="start" style="white-space: pre;" direction="ltr">Bunker</text></g><g stroke-linecap="round"><g transform="translate(179.14832173035484 77.75972134171985) rotate(0 50.3939946474228 -1.2394002139614884)"><path d="M1 0.02 C17.44 -0.19, 81.88 -0.55, 98.35 -0.61 M0.06 -1.01 C16.92 -1.65, 84.15 -2.29, 100.73 -2.5" stroke="#fff" stroke-width="1" fill="none"></path></g><g transform="translate(179.14832173035484 77.75972134171985) rotate(0 50.3939946474228 -1.2394002139614884)"><path d="M72.69 7 C81.08 6.34, 89.3 2.35, 102.38 -1.02 M72.36 8.99 C78.71 4.84, 85.55 3.36, 100.8 -3.35" stroke="#fff" stroke-width="1" fill="none"></path></g><g transform="translate(179.14832173035484 77.75972134171985) rotate(0 50.3939946474228 -1.2394002139614884)"><path d="M72.46 -13.52 C81.02 -8.52, 89.3 -6.85, 102.38 -1.02 M72.13 -11.53 C78.4 -10.63, 85.29 -7.06, 100.8 -3.35" stroke="#fff" stroke-width="1" fill="none"></path></g></g><g stroke-linecap="round"><g transform="translate(179.29492817566734 262.7016769081261) rotate(0 48.743909469097844 -1.3408176965182008)"><path d="M-1.04 -0.33 C15.43 -0.55, 82.04 -0.26, 98.53 -0.48 M0.61 -1.55 C16.92 -2.2, 80.73 -2.46, 97.33 -2.31" stroke="#fff" stroke-width="1" fill="none"></path></g><g transform="translate(179.29492817566734 262.7016769081261) rotate(0 48.743909469097844 -1.3408176965182008)"><path d="M68.57 7.13 C77.73 3.56, 83.51 4.33, 98.11 -0.64 M68.24 7.31 C78.3 4.99, 88.92 0.21, 98.12 -2.89" stroke="#fff" stroke-width="1" fill="none"></path></g><g transform="translate(179.29492817566734 262.7016769081261) rotate(0 48.743909469097844 -1.3408176965182008)"><path d="M68.6 -13.39 C77.89 -11.34, 83.66 -4.95, 98.11 -0.64 M68.26 -13.21 C78.45 -8.33, 89.06 -5.9, 98.12 -2.89" stroke="#fff" stroke-width="1" fill="none"></path></g></g><g stroke-linecap="round"><g transform="translate(424.97198486328125 76.501220703125) rotate(0 53.44622221716679 0.06642335748762207)"><path d="M-0.15 0.15 C17.9 -0.09, 90.62 -0.47, 108.57 -0.67 M-1.68 -0.82 C16.19 -0.91, 89.11 0.78, 107.73 0.95" stroke="#fff" stroke-width="1" fill="none"></path></g><g transform="translate(424.97198486328125 76.501220703125) rotate(0 53.44622221716679 0.06642335748762207)"><path d="M79.62 11.06 C88.84 6.19, 97.56 2.54, 106.22 1.17 M79.35 11.55 C86.98 8.78, 95.55 5.45, 106.8 0.55" stroke="#fff" stroke-width="1" fill="none"></path></g><g transform="translate(424.97198486328125 76.501220703125) rotate(0 53.44622221716679 0.06642335748762207)"><path d="M79.96 -9.46 C89.21 -7.62, 97.82 -4.54, 106.22 1.17 M79.69 -8.97 C87.03 -5.92, 95.5 -3.43, 106.8 0.55" stroke="#fff" stroke-width="1" fill="none"></path></g></g><g stroke-linecap="round"><g transform="translate(425.11859130859375 261.44317626953125) rotate(0 54.30865374960473 -1.1898499774234494)"><path d="M-0.33 -0.47 C17.69 -0.62, 90.93 -2.02, 108.95 -1.9 M1.69 -1.77 C19.53 -1.71, 90.8 -0.98, 108.3 -0.94" stroke="#fff" stroke-width="1" fill="none"></path></g><g transform="translate(425.11859130859375 261.44317626953125) rotate(0 54.30865374960473 -1.1898499774234494)"><path d="M79.25 10.08 C88.77 4.5, 102.79 2.55, 109.97 0.08 M79.43 8.47 C90.96 5.77, 100.08 2.83, 107.72 -1.76" stroke="#fff" stroke-width="1" fill="none"></path></g><g transform="translate(425.11859130859375 261.44317626953125) rotate(0 54.30865374960473 -1.1898499774234494)"><path d="M79.39 -10.44 C88.68 -8.44, 102.65 -2.8, 109.97 0.08 M79.57 -12.05 C91 -7.27, 100.07 -2.73, 107.72 -1.76" stroke="#fff" stroke-width="1" fill="none"></path></g></g><g transform="translate(10 56.604461669921875) rotate(0 69.5 17.5)"><text x="0" y="25" font-family="Virgil, Segoe UI Emoji" font-size="28px" fill="#fff" text-anchor="start" style="white-space: pre;" direction="ltr">Database</text></g><g transform="translate(10.1466064453125 241.54641723632812) rotate(0 69.5 17.5)"><text x="0" y="25" font-family="Virgil, Segoe UI Emoji" font-size="28px" fill="#fff" text-anchor="start" style="white-space: pre;" direction="ltr">Database</text></g><g transform="translate(318.2738037109375 56.816131591796875) rotate(0 32.5 17.5)"><text x="0" y="25" font-family="Virgil, Segoe UI Emoji" font-size="28px" fill="#fff" text-anchor="start" style="white-space: pre;" direction="ltr">Nest</text></g><g transform="translate(304.59368896484375 241.14761352539062) rotate(0 52 17.5)"><text x="0" y="25" font-family="Virgil, Segoe UI Emoji" font-size="28px" fill="#fff" text-anchor="start" style="white-space: pre;" direction="ltr">Gravity</text></g><g transform="translate(577.2612915039062 55.84649658203125) rotate(0 39.5 17.5)"><text x="0" y="25" font-family="Virgil, Segoe UI Emoji" font-size="28px" fill="#fff" text-anchor="start" style="white-space: pre;" direction="ltr">Apollo</text></g><g transform="translate(577.4078979492188 240.7884521484375) rotate(0 52 17.5)"><text x="0" y="25" font-family="Virgil, Segoe UI Emoji" font-size="28px" fill="#fff" text-anchor="start" style="white-space: pre;" direction="ltr">Gravity</text></g></svg>